<mxfile host="65bd71144e">
    <diagram id="4XIOqw8whcifUxjYfumj" name="Page-1">
        <mxGraphModel dx="1251" dy="738" grid="1" gridSize="10" guides="1" tooltips="1" connect="1" arrows="1" fold="1" page="1" pageScale="1" pageWidth="827" pageHeight="1169" math="0" shadow="0">
            <root>
                <mxCell id="0"/>
                <mxCell id="1" parent="0"/>
                <mxCell id="43" value="" style="whiteSpace=wrap;html=1;aspect=fixed;fontFamily=Lucida Console;fontSize=12;" parent="1" vertex="1">
                    <mxGeometry x="220" y="361" width="249" height="249" as="geometry"/>
                </mxCell>
                <mxCell id="4" value="&lt;font style=&quot;font-size: 50px&quot;&gt;E&lt;sub&gt;total&lt;/sub&gt;&amp;nbsp;=&amp;nbsp; (C · α · f ·&amp;nbsp;V&lt;sup&gt;2&lt;/sup&gt;&amp;nbsp; +&amp;nbsp; V · I&lt;sub&gt;leak&lt;/sub&gt;&amp;nbsp;· N ·k&lt;sub&gt;design&lt;/sub&gt;) · t&lt;/font&gt;" style="text;html=1;align=center;verticalAlign=middle;resizable=0;points=[];autosize=1;strokeColor=none;fillColor=none;fontFamily=Lucida Console;fontSize=30;" parent="1" vertex="1">
                    <mxGeometry x="-571" y="196" width="1010" height="70" as="geometry"/>
                </mxCell>
                <mxCell id="6" value="" style="shape=curlyBracket;whiteSpace=wrap;html=1;rounded=1;fontFamily=Lucida Console;fontSize=30;rotation=90;size=0.5;" parent="1" vertex="1">
                    <mxGeometry x="-253.5" y="41.67" width="33" height="278.83" as="geometry"/>
                </mxCell>
                <mxCell id="7" value="" style="shape=curlyBracket;whiteSpace=wrap;html=1;rounded=1;fontFamily=Lucida Console;fontSize=30;rotation=90;size=0.5;" parent="1" vertex="1">
                    <mxGeometry x="139.91" y="-22.83" width="37.91" height="407.83" as="geometry"/>
                </mxCell>
                <mxCell id="8" value="P&lt;sub style=&quot;font-size: 30px;&quot;&gt;dyn&lt;/sub&gt;" style="text;html=1;align=center;verticalAlign=middle;resizable=0;points=[];autosize=1;strokeColor=none;fillColor=none;fontSize=30;fontFamily=Lucida Console;" parent="1" vertex="1">
                    <mxGeometry x="-286.5" y="104.17" width="80" height="50" as="geometry"/>
                </mxCell>
                <mxCell id="9" value="P&lt;span style=&quot;font-size: 30px;&quot;&gt;&lt;sub style=&quot;font-size: 30px;&quot;&gt;leak&lt;/sub&gt;&lt;/span&gt;" style="text;html=1;align=center;verticalAlign=middle;resizable=0;points=[];autosize=1;strokeColor=none;fillColor=none;fontSize=30;fontFamily=Lucida Console;" parent="1" vertex="1">
                    <mxGeometry x="109" y="104.17" width="80" height="50" as="geometry"/>
                </mxCell>
                <mxCell id="23" value="drain D" style="shape=cube;whiteSpace=wrap;html=1;boundedLbl=1;backgroundOutline=1;darkOpacity=0.05;darkOpacity2=0.1;" parent="1" vertex="1">
                    <mxGeometry x="353.73" y="513" width="100" height="40" as="geometry"/>
                </mxCell>
                <mxCell id="24" value="source S" style="shape=cube;whiteSpace=wrap;html=1;boundedLbl=1;backgroundOutline=1;darkOpacity=0.05;darkOpacity2=0.1;" parent="1" vertex="1">
                    <mxGeometry x="233.73000000000002" y="513" width="100" height="40" as="geometry"/>
                </mxCell>
                <mxCell id="26" value="" style="endArrow=none;html=1;entryX=0;entryY=0;entryDx=0;entryDy=20;entryPerimeter=0;" parent="1" target="24" edge="1">
                    <mxGeometry width="50" height="50" relative="1" as="geometry">
                        <mxPoint x="233.73000000000002" y="563" as="sourcePoint"/>
                        <mxPoint x="263.73" y="553" as="targetPoint"/>
                    </mxGeometry>
                </mxCell>
                <mxCell id="27" value="" style="endArrow=none;html=1;entryX=0;entryY=0;entryDx=0;entryDy=20;entryPerimeter=0;" parent="1" edge="1">
                    <mxGeometry width="50" height="50" relative="1" as="geometry">
                        <mxPoint x="253.73000000000002" y="583" as="sourcePoint"/>
                        <mxPoint x="253.73000000000002" y="553" as="targetPoint"/>
                    </mxGeometry>
                </mxCell>
                <mxCell id="28" value="" style="endArrow=none;html=1;entryX=0;entryY=0;entryDx=0;entryDy=20;entryPerimeter=0;" parent="1" edge="1">
                    <mxGeometry width="50" height="50" relative="1" as="geometry">
                        <mxPoint x="453.73" y="583" as="sourcePoint"/>
                        <mxPoint x="453.73" y="553" as="targetPoint"/>
                    </mxGeometry>
                </mxCell>
                <mxCell id="29" value="" style="endArrow=none;html=1;" parent="1" edge="1">
                    <mxGeometry width="50" height="50" relative="1" as="geometry">
                        <mxPoint x="253.73000000000002" y="583" as="sourcePoint"/>
                        <mxPoint x="233.73000000000002" y="563" as="targetPoint"/>
                    </mxGeometry>
                </mxCell>
                <mxCell id="30" value="" style="endArrow=none;html=1;" parent="1" edge="1">
                    <mxGeometry width="50" height="50" relative="1" as="geometry">
                        <mxPoint x="453.73" y="583" as="sourcePoint"/>
                        <mxPoint x="253.73000000000002" y="583" as="targetPoint"/>
                    </mxGeometry>
                </mxCell>
                <mxCell id="31" value="" style="endArrow=none;html=1;exitX=0;exitY=0;exitDx=0;exitDy=0;exitPerimeter=0;" parent="1" source="23" edge="1">
                    <mxGeometry width="50" height="50" relative="1" as="geometry">
                        <mxPoint x="513.73" y="512.6700000000001" as="sourcePoint"/>
                        <mxPoint x="313.73" y="512.6700000000001" as="targetPoint"/>
                    </mxGeometry>
                </mxCell>
                <mxCell id="32" value="" style="rounded=0;whiteSpace=wrap;html=1;strokeColor=none;" parent="1" vertex="1">
                    <mxGeometry x="342.73" y="533" width="30" height="20" as="geometry"/>
                </mxCell>
                <mxCell id="33" value="" style="endArrow=none;html=1;entryX=0;entryY=0;entryDx=100;entryDy=20;entryPerimeter=0;" parent="1" target="24" edge="1">
                    <mxGeometry width="50" height="50" relative="1" as="geometry">
                        <mxPoint x="375.73" y="533" as="sourcePoint"/>
                        <mxPoint x="323.73" y="522.67" as="targetPoint"/>
                    </mxGeometry>
                </mxCell>
                <mxCell id="34" value="" style="shape=cube;whiteSpace=wrap;html=1;boundedLbl=1;backgroundOutline=1;darkOpacity=0.05;darkOpacity2=0.1;fillColor=#000000;" parent="1" vertex="1">
                    <mxGeometry x="313.73" y="503" width="60" height="30" as="geometry"/>
                </mxCell>
                <mxCell id="35" value="gate G" style="shape=cube;whiteSpace=wrap;html=1;boundedLbl=1;backgroundOutline=1;darkOpacity=0.05;darkOpacity2=0.1;gradientColor=#666666;gradientDirection=west;" parent="1" vertex="1">
                    <mxGeometry x="313.73" y="490" width="60" height="40" as="geometry"/>
                </mxCell>
                <mxCell id="36" value="&lt;span style=&quot;font-size: 12px ; background-color: rgb(248 , 249 , 250)&quot;&gt;I&lt;/span&gt;&lt;sub style=&quot;background-color: rgb(248 , 249 , 250)&quot;&gt;leak&lt;/sub&gt;" style="endArrow=classic;startArrow=classic;html=1;strokeWidth=3;endFill=1;startFill=1;jumpSize=5;endSize=1;startSize=1;fillColor=#f8cecc;strokeColor=#b85450;" parent="1" edge="1">
                    <mxGeometry x="-0.0346" y="-11" width="50" height="50" relative="1" as="geometry">
                        <mxPoint x="332" y="558" as="sourcePoint"/>
                        <mxPoint x="374" y="558" as="targetPoint"/>
                        <mxPoint as="offset"/>
                    </mxGeometry>
                </mxCell>
                <mxCell id="38" value="" style="whiteSpace=wrap;html=1;aspect=fixed;fontSize=10;fillColor=#000000;gradientColor=none;gradientDirection=west;" parent="1" vertex="1">
                    <mxGeometry x="233.73000000000002" y="475" width="10" height="10" as="geometry"/>
                </mxCell>
                <mxCell id="39" value="Channel" style="text;html=1;align=center;verticalAlign=middle;resizable=0;points=[];autosize=1;strokeColor=none;fillColor=none;fontSize=10;" parent="1" vertex="1">
                    <mxGeometry x="243.73000000000002" y="470" width="50" height="20" as="geometry"/>
                </mxCell>
                <mxCell id="44" value="Subtreshold &lt;br style=&quot;font-size: 25px;&quot;&gt;leakage" style="text;html=1;align=center;verticalAlign=middle;resizable=0;points=[];autosize=1;strokeColor=none;fillColor=none;fontSize=25;fontFamily=Lucida Console;" parent="1" vertex="1">
                    <mxGeometry x="279.5" y="370" width="130" height="70" as="geometry"/>
                </mxCell>
                <mxCell id="45" value="" style="whiteSpace=wrap;html=1;aspect=fixed;fontFamily=Lucida Console;fontSize=12;" parent="1" vertex="1">
                    <mxGeometry x="-40" y="361" width="249" height="249" as="geometry"/>
                </mxCell>
                <mxCell id="46" value="Voltage" style="text;html=1;align=center;verticalAlign=middle;resizable=0;points=[];autosize=1;strokeColor=none;fillColor=none;fontSize=25;fontFamily=Lucida Console;" parent="1" vertex="1">
                    <mxGeometry x="37.91" y="370" width="90" height="40" as="geometry"/>
                </mxCell>
                <mxCell id="47" value="" style="whiteSpace=wrap;html=1;aspect=fixed;fontFamily=Lucida Console;fontSize=12;" parent="1" vertex="1">
                    <mxGeometry x="-300" y="361" width="249" height="249" as="geometry"/>
                </mxCell>
                <mxCell id="48" value="Frequency" style="text;html=1;align=center;verticalAlign=middle;resizable=0;points=[];autosize=1;strokeColor=none;fillColor=none;fontSize=25;fontFamily=Lucida Console;" parent="1" vertex="1">
                    <mxGeometry x="-235.5" y="370" width="120" height="40" as="geometry"/>
                </mxCell>
                <mxCell id="49" value="" style="whiteSpace=wrap;html=1;aspect=fixed;fontFamily=Lucida Console;fontSize=12;" parent="1" vertex="1">
                    <mxGeometry x="-820" y="361" width="249" height="249" as="geometry"/>
                </mxCell>
                <mxCell id="50" value="Capacitance" style="text;html=1;align=center;verticalAlign=middle;resizable=0;points=[];autosize=1;strokeColor=none;fillColor=none;fontSize=25;fontFamily=Lucida Console;" parent="1" vertex="1">
                    <mxGeometry x="-764.9200000000001" y="375.5" width="140" height="40" as="geometry"/>
                </mxCell>
                <mxCell id="51" value="" style="whiteSpace=wrap;html=1;aspect=fixed;fontFamily=Lucida Console;fontSize=12;" parent="1" vertex="1">
                    <mxGeometry x="-560" y="361" width="249" height="249" as="geometry"/>
                </mxCell>
                <mxCell id="52" value="Switching activity" style="text;html=1;align=center;verticalAlign=middle;resizable=0;points=[];autosize=1;strokeColor=none;fillColor=none;fontSize=25;fontFamily=Lucida Console;" parent="1" vertex="1">
                    <mxGeometry x="-535.5" y="375.5" width="200" height="40" as="geometry"/>
                </mxCell>
                <mxCell id="53" value="" style="endArrow=classic;html=1;fontFamily=Lucida Console;fontSize=30;edgeStyle=orthogonalEdgeStyle;curved=1;strokeWidth=3;" parent="1" edge="1">
                    <mxGeometry width="50" height="50" relative="1" as="geometry">
                        <mxPoint x="-365" y="274" as="sourcePoint"/>
                        <mxPoint x="-690" y="348" as="targetPoint"/>
                        <Array as="points">
                            <mxPoint x="-365" y="300"/>
                            <mxPoint x="-690" y="300"/>
                        </Array>
                    </mxGeometry>
                </mxCell>
                <mxCell id="56" value="" style="endArrow=classic;html=1;fontFamily=Lucida Console;fontSize=30;edgeStyle=orthogonalEdgeStyle;curved=1;strokeWidth=3;" parent="1" edge="1">
                    <mxGeometry width="50" height="50" relative="1" as="geometry">
                        <mxPoint x="-290" y="270" as="sourcePoint"/>
                        <mxPoint x="-430" y="348" as="targetPoint"/>
                        <Array as="points">
                            <mxPoint x="-290" y="310"/>
                            <mxPoint x="-430" y="310"/>
                        </Array>
                    </mxGeometry>
                </mxCell>
                <mxCell id="57" value="" style="endArrow=classic;html=1;fontFamily=Lucida Console;fontSize=30;edgeStyle=orthogonalEdgeStyle;curved=1;strokeWidth=3;" parent="1" edge="1">
                    <mxGeometry width="50" height="50" relative="1" as="geometry">
                        <mxPoint x="-227" y="274" as="sourcePoint"/>
                        <mxPoint x="-158" y="348" as="targetPoint"/>
                        <Array as="points">
                            <mxPoint x="-227" y="310"/>
                            <mxPoint x="-158" y="310"/>
                        </Array>
                    </mxGeometry>
                </mxCell>
                <mxCell id="58" value="" style="endArrow=classic;html=1;fontFamily=Lucida Console;fontSize=30;edgeStyle=orthogonalEdgeStyle;curved=1;strokeWidth=3;" parent="1" edge="1">
                    <mxGeometry width="50" height="50" relative="1" as="geometry">
                        <mxPoint x="-156" y="277" as="sourcePoint"/>
                        <mxPoint x="90" y="350" as="targetPoint"/>
                        <Array as="points">
                            <mxPoint x="-156" y="290"/>
                            <mxPoint x="-80" y="290"/>
                            <mxPoint x="-80" y="320"/>
                            <mxPoint x="90" y="320"/>
                        </Array>
                    </mxGeometry>
                </mxCell>
                <mxCell id="59" value="" style="endArrow=classic;html=1;fontFamily=Lucida Console;fontSize=30;edgeStyle=orthogonalEdgeStyle;curved=1;strokeWidth=3;" parent="1" edge="1">
                    <mxGeometry width="50" height="50" relative="1" as="geometry">
                        <mxPoint x="-30" y="270" as="sourcePoint"/>
                        <mxPoint x="88.99999999999977" y="350.0000000000001" as="targetPoint"/>
                        <Array as="points">
                            <mxPoint x="-30" y="290"/>
                            <mxPoint x="-80" y="290"/>
                            <mxPoint x="-80" y="320"/>
                            <mxPoint x="89" y="320"/>
                        </Array>
                    </mxGeometry>
                </mxCell>
                <mxCell id="60" value="" style="endArrow=classic;html=1;fontFamily=Lucida Console;fontSize=30;edgeStyle=orthogonalEdgeStyle;curved=1;strokeWidth=3;" parent="1" edge="1">
                    <mxGeometry width="50" height="50" relative="1" as="geometry">
                        <mxPoint x="80" y="280" as="sourcePoint"/>
                        <mxPoint x="342.73" y="351" as="targetPoint"/>
                        <Array as="points">
                            <mxPoint x="80" y="320"/>
                            <mxPoint x="343" y="320"/>
                        </Array>
                    </mxGeometry>
                </mxCell>
                <mxCell id="62" value="" style="pointerEvents=1;verticalLabelPosition=bottom;shadow=0;dashed=0;align=center;html=1;verticalAlign=top;shape=mxgraph.electrical.waveforms.pulse_1;fontFamily=Lucida Console;fontSize=30;" parent="1" vertex="1">
                    <mxGeometry x="-255.5" y="460" width="40" height="90" as="geometry"/>
                </mxCell>
                <mxCell id="63" value="" style="pointerEvents=1;verticalLabelPosition=bottom;shadow=0;dashed=0;align=center;html=1;verticalAlign=top;shape=mxgraph.electrical.waveforms.pulse_1;fontFamily=Lucida Console;fontSize=30;" parent="1" vertex="1">
                    <mxGeometry x="-215.5" y="460" width="40" height="90" as="geometry"/>
                </mxCell>
                <mxCell id="64" value="" style="pointerEvents=1;verticalLabelPosition=bottom;shadow=0;dashed=0;align=center;html=1;verticalAlign=top;shape=mxgraph.electrical.waveforms.pulse_1;fontFamily=Lucida Console;fontSize=30;" parent="1" vertex="1">
                    <mxGeometry x="-175.5" y="460" width="40" height="90" as="geometry"/>
                </mxCell>
                <mxCell id="66" value="" style="pointerEvents=1;verticalLabelPosition=bottom;shadow=0;dashed=0;align=center;html=1;verticalAlign=top;shape=mxgraph.electrical.waveforms.pulse_1;fontFamily=Lucida Console;fontSize=30;" parent="1" vertex="1">
                    <mxGeometry x="-135.5" y="460" width="40" height="90" as="geometry"/>
                </mxCell>
                <mxCell id="67" value="" style="endArrow=baseDash;html=1;fontFamily=Lucida Console;fontSize=30;strokeWidth=3;startArrow=baseDash;startFill=0;endFill=0;edgeStyle=orthogonalEdgeStyle;fillColor=#f8cecc;strokeColor=#b85450;" parent="1" edge="1">
                    <mxGeometry width="50" height="50" relative="1" as="geometry">
                        <mxPoint x="-249.5" y="577" as="sourcePoint"/>
                        <mxPoint x="-91" y="577" as="targetPoint"/>
                    </mxGeometry>
                </mxCell>
                <mxCell id="69" value="" style="pointerEvents=1;verticalLabelPosition=bottom;shadow=0;dashed=0;align=center;html=1;verticalAlign=top;shape=mxgraph.electrical.waveforms.pulse_1;fontFamily=Lucida Console;fontSize=30;" parent="1" vertex="1">
                    <mxGeometry x="-2.0900000000000034" y="451" width="40" height="90" as="geometry"/>
                </mxCell>
                <mxCell id="70" value="" style="pointerEvents=1;verticalLabelPosition=bottom;shadow=0;dashed=0;align=center;html=1;verticalAlign=top;shape=mxgraph.electrical.waveforms.pulse_1;fontFamily=Lucida Console;fontSize=30;" parent="1" vertex="1">
                    <mxGeometry x="37.91" y="451" width="40" height="90" as="geometry"/>
                </mxCell>
                <mxCell id="71" value="" style="pointerEvents=1;verticalLabelPosition=bottom;shadow=0;dashed=0;align=center;html=1;verticalAlign=top;shape=mxgraph.electrical.waveforms.pulse_1;fontFamily=Lucida Console;fontSize=30;" parent="1" vertex="1">
                    <mxGeometry x="77.91" y="451" width="40" height="90" as="geometry"/>
                </mxCell>
                <mxCell id="72" value="" style="pointerEvents=1;verticalLabelPosition=bottom;shadow=0;dashed=0;align=center;html=1;verticalAlign=top;shape=mxgraph.electrical.waveforms.pulse_1;fontFamily=Lucida Console;fontSize=30;" parent="1" vertex="1">
                    <mxGeometry x="117.91" y="451" width="40" height="90" as="geometry"/>
                </mxCell>
                <mxCell id="73" value="" style="endArrow=baseDash;html=1;fontFamily=Lucida Console;fontSize=30;strokeWidth=3;startArrow=baseDash;startFill=0;endFill=0;edgeStyle=orthogonalEdgeStyle;fillColor=#f8cecc;strokeColor=#b85450;" parent="1" edge="1">
                    <mxGeometry width="50" height="50" relative="1" as="geometry">
                        <mxPoint x="-18" y="545" as="sourcePoint"/>
                        <mxPoint x="-18" y="453" as="targetPoint"/>
                        <Array as="points">
                            <mxPoint x="-18" y="533"/>
                        </Array>
                    </mxGeometry>
                </mxCell>
                <mxCell id="81" value="&lt;font style=&quot;font-size: 20px&quot;&gt;V&lt;sub&gt;GS &lt;/sub&gt;&amp;lt; V&lt;sub&gt;T&lt;/sub&gt;&lt;/font&gt;" style="text;html=1;align=center;verticalAlign=middle;resizable=0;points=[];autosize=1;strokeColor=none;fillColor=none;fontSize=30;fontFamily=Lucida Console;" parent="1" vertex="1">
                    <mxGeometry x="364" y="451" width="100" height="50" as="geometry"/>
                </mxCell>
                <mxCell id="133" value="drain D" style="shape=cube;whiteSpace=wrap;html=1;boundedLbl=1;backgroundOutline=1;darkOpacity=0.05;darkOpacity2=0.1;" parent="1" vertex="1">
                    <mxGeometry x="-684.9200000000001" y="453.5" width="100" height="40" as="geometry"/>
                </mxCell>
                <mxCell id="134" value="source S" style="shape=cube;whiteSpace=wrap;html=1;boundedLbl=1;backgroundOutline=1;darkOpacity=0.05;darkOpacity2=0.1;" parent="1" vertex="1">
                    <mxGeometry x="-804.92" y="453.5" width="100" height="40" as="geometry"/>
                </mxCell>
                <mxCell id="135" value="" style="endArrow=none;html=1;entryX=0;entryY=0;entryDx=0;entryDy=20;entryPerimeter=0;" parent="1" target="134" edge="1">
                    <mxGeometry width="50" height="50" relative="1" as="geometry">
                        <mxPoint x="-804.92" y="503.5" as="sourcePoint"/>
                        <mxPoint x="-774.92" y="493.5" as="targetPoint"/>
                    </mxGeometry>
                </mxCell>
                <mxCell id="136" value="" style="endArrow=none;html=1;entryX=0;entryY=0;entryDx=0;entryDy=20;entryPerimeter=0;" parent="1" edge="1">
                    <mxGeometry width="50" height="50" relative="1" as="geometry">
                        <mxPoint x="-784.92" y="523.5" as="sourcePoint"/>
                        <mxPoint x="-784.92" y="493.5" as="targetPoint"/>
                    </mxGeometry>
                </mxCell>
                <mxCell id="137" value="" style="endArrow=none;html=1;entryX=0;entryY=0;entryDx=0;entryDy=20;entryPerimeter=0;" parent="1" edge="1">
                    <mxGeometry width="50" height="50" relative="1" as="geometry">
                        <mxPoint x="-584.9200000000001" y="523.5" as="sourcePoint"/>
                        <mxPoint x="-584.9200000000001" y="493.5" as="targetPoint"/>
                    </mxGeometry>
                </mxCell>
                <mxCell id="138" value="" style="endArrow=none;html=1;" parent="1" edge="1">
                    <mxGeometry width="50" height="50" relative="1" as="geometry">
                        <mxPoint x="-784.92" y="523.5" as="sourcePoint"/>
                        <mxPoint x="-804.92" y="503.5" as="targetPoint"/>
                    </mxGeometry>
                </mxCell>
                <mxCell id="139" value="" style="endArrow=none;html=1;" parent="1" edge="1">
                    <mxGeometry width="50" height="50" relative="1" as="geometry">
                        <mxPoint x="-584.9200000000001" y="523.5" as="sourcePoint"/>
                        <mxPoint x="-784.92" y="523.5" as="targetPoint"/>
                    </mxGeometry>
                </mxCell>
                <mxCell id="140" value="" style="endArrow=none;html=1;exitX=0;exitY=0;exitDx=0;exitDy=0;exitPerimeter=0;" parent="1" source="133" edge="1">
                    <mxGeometry width="50" height="50" relative="1" as="geometry">
                        <mxPoint x="-524.92" y="453.1700000000001" as="sourcePoint"/>
                        <mxPoint x="-724.9200000000001" y="453.1700000000001" as="targetPoint"/>
                    </mxGeometry>
                </mxCell>
                <mxCell id="141" value="" style="rounded=0;whiteSpace=wrap;html=1;strokeColor=none;" parent="1" vertex="1">
                    <mxGeometry x="-695.9200000000001" y="473.5" width="30" height="20" as="geometry"/>
                </mxCell>
                <mxCell id="142" value="" style="endArrow=none;html=1;entryX=0;entryY=0;entryDx=100;entryDy=20;entryPerimeter=0;" parent="1" target="134" edge="1">
                    <mxGeometry width="50" height="50" relative="1" as="geometry">
                        <mxPoint x="-662.9200000000001" y="473.5" as="sourcePoint"/>
                        <mxPoint x="-714.9200000000001" y="463.16999999999996" as="targetPoint"/>
                    </mxGeometry>
                </mxCell>
                <mxCell id="143" value="" style="shape=cube;whiteSpace=wrap;html=1;boundedLbl=1;backgroundOutline=1;darkOpacity=0.05;darkOpacity2=0.1;fillColor=#000000;" parent="1" vertex="1">
                    <mxGeometry x="-724.9200000000001" y="443.5" width="60" height="30" as="geometry"/>
                </mxCell>
                <mxCell id="144" value="gate G" style="shape=cube;whiteSpace=wrap;html=1;boundedLbl=1;backgroundOutline=1;darkOpacity=0.05;darkOpacity2=0.1;gradientColor=#666666;gradientDirection=west;" parent="1" vertex="1">
                    <mxGeometry x="-724.9200000000001" y="430.5" width="60" height="40" as="geometry"/>
                </mxCell>
                <mxCell id="146" value="" style="whiteSpace=wrap;html=1;aspect=fixed;fontSize=10;fillColor=#000000;gradientColor=none;gradientDirection=west;" parent="1" vertex="1">
                    <mxGeometry x="-804" y="435.5" width="10" height="10" as="geometry"/>
                </mxCell>
                <mxCell id="147" value="Channel" style="text;html=1;align=center;verticalAlign=middle;resizable=0;points=[];autosize=1;strokeColor=none;fillColor=none;fontSize=10;" parent="1" vertex="1">
                    <mxGeometry x="-794.92" y="430.5" width="50" height="20" as="geometry"/>
                </mxCell>
                <mxCell id="152" value="body B" style="text;html=1;align=center;verticalAlign=middle;resizable=0;points=[];autosize=1;strokeColor=none;fillColor=none;" parent="1" vertex="1">
                    <mxGeometry x="-710" y="495.5" width="50" height="20" as="geometry"/>
                </mxCell>
                <mxCell id="153" value="" style="pointerEvents=1;verticalLabelPosition=bottom;shadow=0;dashed=0;align=center;html=1;verticalAlign=top;shape=mxgraph.electrical.capacitors.capacitor_1;fillColor=#000000;rotation=90;" parent="1" vertex="1">
                    <mxGeometry x="-665.9200000000001" y="538.5" width="66" height="60" as="geometry"/>
                </mxCell>
                <mxCell id="154" value="&lt;font style=&quot;font-size: 15px&quot;&gt;C&lt;sub&gt;L&lt;/sub&gt;&lt;/font&gt;" style="text;html=1;align=center;verticalAlign=middle;resizable=0;points=[];autosize=1;strokeColor=none;fillColor=none;" parent="1" vertex="1">
                    <mxGeometry x="-602.4200000000001" y="570.5" width="30" height="20" as="geometry"/>
                </mxCell>
                <mxCell id="155" value="" style="rounded=0;whiteSpace=wrap;html=1;fontSize=50;fillColor=#f8cecc;strokeColor=#b85450;" parent="1" vertex="1">
                    <mxGeometry x="-704.9200000000001" y="474.5" width="39.92" height="11" as="geometry"/>
                </mxCell>
                <mxCell id="158" value="" style="rounded=0;whiteSpace=wrap;html=1;fontSize=50;fillColor=#f8cecc;strokeColor=#b85450;" parent="1" vertex="1">
                    <mxGeometry x="-663.34" y="566.5" width="59.42" height="4" as="geometry"/>
                </mxCell>
                <mxCell id="159" value="" style="pointerEvents=1;verticalLabelPosition=bottom;shadow=0;dashed=0;align=center;html=1;verticalAlign=top;shape=mxgraph.electrical.waveforms.pulse_1;fontFamily=Lucida Console;fontSize=30;" parent="1" vertex="1">
                    <mxGeometry x="-804.92" y="538.5" width="40" height="60" as="geometry"/>
                </mxCell>
                <mxCell id="160" value="" style="pointerEvents=1;verticalLabelPosition=bottom;shadow=0;dashed=0;align=center;html=1;verticalAlign=top;shape=mxgraph.electrical.waveforms.pulse_1;fontFamily=Lucida Console;fontSize=30;" parent="1" vertex="1">
                    <mxGeometry x="-764.9200000000001" y="538.5" width="40" height="60" as="geometry"/>
                </mxCell>
                <mxCell id="161" value="" style="pointerEvents=1;verticalLabelPosition=bottom;shadow=0;dashed=0;align=center;html=1;verticalAlign=top;shape=mxgraph.electrical.waveforms.pulse_1;fontFamily=Lucida Console;fontSize=30;" parent="1" vertex="1">
                    <mxGeometry x="-724.9200000000001" y="538.5" width="40" height="60" as="geometry"/>
                </mxCell>
                <mxCell id="264" value="" style="group" parent="1" vertex="1" connectable="0">
                    <mxGeometry x="-480" y="471.5" width="70" height="20" as="geometry"/>
                </mxCell>
                <mxCell id="265" value="" style="rounded=0;whiteSpace=wrap;html=1;fontSize=50;fillColor=#eeeeee;strokeColor=#36393d;" parent="264" vertex="1">
                    <mxGeometry x="25" width="20" height="5" as="geometry"/>
                </mxCell>
                <mxCell id="266" value="" style="rounded=0;whiteSpace=wrap;html=1;fontSize=50;" parent="264" vertex="1">
                    <mxGeometry y="5" width="70" height="15" as="geometry"/>
                </mxCell>
                <mxCell id="267" value="" style="rounded=0;whiteSpace=wrap;html=1;fontSize=50;fillColor=#eeeeee;strokeColor=#36393d;" parent="264" vertex="1">
                    <mxGeometry y="5" width="25" height="5" as="geometry"/>
                </mxCell>
                <mxCell id="268" value="" style="rounded=0;whiteSpace=wrap;html=1;fontSize=50;fillColor=#eeeeee;strokeColor=#36393d;" parent="264" vertex="1">
                    <mxGeometry x="45" y="5" width="25" height="5" as="geometry"/>
                </mxCell>
                <mxCell id="269" value="" style="group" parent="1" vertex="1" connectable="0">
                    <mxGeometry x="-478.5" y="435.5" width="70" height="20" as="geometry"/>
                </mxCell>
                <mxCell id="270" value="" style="rounded=0;whiteSpace=wrap;html=1;fontSize=50;fillColor=#eeeeee;strokeColor=#36393d;" parent="269" vertex="1">
                    <mxGeometry x="25" width="20" height="5" as="geometry"/>
                </mxCell>
                <mxCell id="271" value="" style="rounded=0;whiteSpace=wrap;html=1;fontSize=50;" parent="269" vertex="1">
                    <mxGeometry y="5" width="70" height="15" as="geometry"/>
                </mxCell>
                <mxCell id="272" value="" style="rounded=0;whiteSpace=wrap;html=1;fontSize=50;fillColor=#eeeeee;strokeColor=#36393d;" parent="269" vertex="1">
                    <mxGeometry y="5" width="25" height="5" as="geometry"/>
                </mxCell>
                <mxCell id="273" value="" style="rounded=0;whiteSpace=wrap;html=1;fontSize=50;fillColor=#eeeeee;strokeColor=#36393d;" parent="269" vertex="1">
                    <mxGeometry x="45" y="5" width="25" height="5" as="geometry"/>
                </mxCell>
                <mxCell id="279" value="" style="group" parent="1" vertex="1" connectable="0">
                    <mxGeometry x="-477" y="505.5" width="70" height="20" as="geometry"/>
                </mxCell>
                <mxCell id="280" value="" style="rounded=0;whiteSpace=wrap;html=1;fontSize=50;fillColor=#eeeeee;strokeColor=#36393d;" parent="279" vertex="1">
                    <mxGeometry x="25" width="20" height="5" as="geometry"/>
                </mxCell>
                <mxCell id="281" value="" style="rounded=0;whiteSpace=wrap;html=1;fontSize=50;" parent="279" vertex="1">
                    <mxGeometry y="5" width="70" height="15" as="geometry"/>
                </mxCell>
                <mxCell id="282" value="" style="rounded=0;whiteSpace=wrap;html=1;fontSize=50;fillColor=#eeeeee;strokeColor=#36393d;" parent="279" vertex="1">
                    <mxGeometry y="5" width="25" height="5" as="geometry"/>
                </mxCell>
                <mxCell id="283" value="" style="rounded=0;whiteSpace=wrap;html=1;fontSize=50;fillColor=#eeeeee;strokeColor=#36393d;" parent="279" vertex="1">
                    <mxGeometry x="45" y="5" width="25" height="5" as="geometry"/>
                </mxCell>
                <mxCell id="348" value="" style="rounded=0;whiteSpace=wrap;html=1;fontSize=50;fillColor=#f8cecc;strokeColor=#b85450;" parent="279" vertex="1">
                    <mxGeometry x="25" y="5" width="20" height="2" as="geometry"/>
                </mxCell>
                <mxCell id="284" value="" style="group" parent="1" vertex="1" connectable="0">
                    <mxGeometry x="-398.5" y="471.5" width="70" height="20" as="geometry"/>
                </mxCell>
                <mxCell id="285" value="" style="rounded=0;whiteSpace=wrap;html=1;fontSize=50;fillColor=#eeeeee;strokeColor=#36393d;" parent="284" vertex="1">
                    <mxGeometry x="25" width="20" height="5" as="geometry"/>
                </mxCell>
                <mxCell id="286" value="" style="rounded=0;whiteSpace=wrap;html=1;fontSize=50;" parent="284" vertex="1">
                    <mxGeometry y="5" width="70" height="15" as="geometry"/>
                </mxCell>
                <mxCell id="287" value="" style="rounded=0;whiteSpace=wrap;html=1;fontSize=50;fillColor=#eeeeee;strokeColor=#36393d;" parent="284" vertex="1">
                    <mxGeometry y="5" width="25" height="5" as="geometry"/>
                </mxCell>
                <mxCell id="288" value="" style="rounded=0;whiteSpace=wrap;html=1;fontSize=50;fillColor=#eeeeee;strokeColor=#36393d;" parent="284" vertex="1">
                    <mxGeometry x="45" y="5" width="25" height="5" as="geometry"/>
                </mxCell>
                <mxCell id="349" value="" style="rounded=0;whiteSpace=wrap;html=1;fontSize=50;fillColor=#f8cecc;strokeColor=#b85450;" parent="284" vertex="1">
                    <mxGeometry x="25" y="5" width="20" height="2" as="geometry"/>
                </mxCell>
                <mxCell id="289" value="" style="group" parent="1" vertex="1" connectable="0">
                    <mxGeometry x="-397" y="435.5" width="70" height="20" as="geometry"/>
                </mxCell>
                <mxCell id="290" value="" style="rounded=0;whiteSpace=wrap;html=1;fontSize=50;fillColor=#eeeeee;strokeColor=#36393d;" parent="289" vertex="1">
                    <mxGeometry x="25" width="20" height="5" as="geometry"/>
                </mxCell>
                <mxCell id="291" value="" style="rounded=0;whiteSpace=wrap;html=1;fontSize=50;" parent="289" vertex="1">
                    <mxGeometry y="5" width="70" height="15" as="geometry"/>
                </mxCell>
                <mxCell id="292" value="" style="rounded=0;whiteSpace=wrap;html=1;fontSize=50;fillColor=#eeeeee;strokeColor=#36393d;" parent="289" vertex="1">
                    <mxGeometry y="5" width="25" height="5" as="geometry"/>
                </mxCell>
                <mxCell id="293" value="" style="rounded=0;whiteSpace=wrap;html=1;fontSize=50;fillColor=#eeeeee;strokeColor=#36393d;" parent="289" vertex="1">
                    <mxGeometry x="45" y="5" width="25" height="5" as="geometry"/>
                </mxCell>
                <mxCell id="299" value="" style="group" parent="1" vertex="1" connectable="0">
                    <mxGeometry x="-397" y="505.5" width="70" height="20" as="geometry"/>
                </mxCell>
                <mxCell id="300" value="" style="rounded=0;whiteSpace=wrap;html=1;fontSize=50;fillColor=#eeeeee;strokeColor=#36393d;" parent="299" vertex="1">
                    <mxGeometry x="25" width="20" height="5" as="geometry"/>
                </mxCell>
                <mxCell id="301" value="" style="rounded=0;whiteSpace=wrap;html=1;fontSize=50;" parent="299" vertex="1">
                    <mxGeometry y="5" width="70" height="15" as="geometry"/>
                </mxCell>
                <mxCell id="302" value="" style="rounded=0;whiteSpace=wrap;html=1;fontSize=50;fillColor=#eeeeee;strokeColor=#36393d;" parent="299" vertex="1">
                    <mxGeometry y="5" width="25" height="5" as="geometry"/>
                </mxCell>
                <mxCell id="303" value="" style="rounded=0;whiteSpace=wrap;html=1;fontSize=50;fillColor=#eeeeee;strokeColor=#36393d;" parent="299" vertex="1">
                    <mxGeometry x="45" y="5" width="25" height="5" as="geometry"/>
                </mxCell>
                <mxCell id="345" value="" style="pointerEvents=1;verticalLabelPosition=bottom;shadow=0;dashed=0;align=center;html=1;verticalAlign=top;shape=mxgraph.electrical.waveforms.pulse_1;fontFamily=Lucida Console;fontSize=30;" parent="1" vertex="1">
                    <mxGeometry x="-540" y="541.5" width="40" height="60" as="geometry"/>
                </mxCell>
                <mxCell id="346" value="" style="pointerEvents=1;verticalLabelPosition=bottom;shadow=0;dashed=0;align=center;html=1;verticalAlign=top;shape=mxgraph.electrical.waveforms.pulse_1;fontFamily=Lucida Console;fontSize=30;" parent="1" vertex="1">
                    <mxGeometry x="-500" y="541.5" width="40" height="60" as="geometry"/>
                </mxCell>
                <mxCell id="347" value="" style="pointerEvents=1;verticalLabelPosition=bottom;shadow=0;dashed=0;align=center;html=1;verticalAlign=top;shape=mxgraph.electrical.waveforms.pulse_1;fontFamily=Lucida Console;fontSize=30;" parent="1" vertex="1">
                    <mxGeometry x="-460" y="541.5" width="40" height="60" as="geometry"/>
                </mxCell>
                <mxCell id="350" value="" style="rounded=1;whiteSpace=wrap;html=1;fontSize=50;arcSize=50;fillColor=#eeeeee;strokeColor=#36393d;" parent="1" vertex="1">
                    <mxGeometry x="-804" y="620" width="211.75" height="70" as="geometry"/>
                </mxCell>
                <mxCell id="351" value="&lt;span&gt;Hardware-specific&lt;/span&gt;" style="text;html=1;align=center;verticalAlign=middle;resizable=0;points=[];autosize=1;strokeColor=none;fillColor=none;fontSize=23;" parent="1" vertex="1">
                    <mxGeometry x="-793.62" y="640" width="200" height="30" as="geometry"/>
                </mxCell>
                <mxCell id="352" value="" style="rounded=1;whiteSpace=wrap;html=1;fontSize=50;arcSize=50;fillColor=#eeeeee;strokeColor=#36393d;" parent="1" vertex="1">
                    <mxGeometry x="243.7299999999999" y="620" width="211.75" height="70" as="geometry"/>
                </mxCell>
                <mxCell id="353" value="&lt;span&gt;Hardware-specific&lt;/span&gt;" style="text;html=1;align=center;verticalAlign=middle;resizable=0;points=[];autosize=1;strokeColor=none;fillColor=none;fontSize=23;" parent="1" vertex="1">
                    <mxGeometry x="249.6099999999999" y="640" width="200" height="30" as="geometry"/>
                </mxCell>
                <mxCell id="356" value="" style="rounded=1;whiteSpace=wrap;html=1;fontSize=50;arcSize=50;" parent="1" vertex="1">
                    <mxGeometry x="-545.88" y="620" width="211.75" height="70" as="geometry"/>
                </mxCell>
                <mxCell id="357" value="&lt;span&gt;Task-specific&lt;/span&gt;" style="text;html=1;align=center;verticalAlign=middle;resizable=0;points=[];autosize=1;strokeColor=none;fillColor=none;fontSize=23;" parent="1" vertex="1">
                    <mxGeometry x="-515.0100000000001" y="640" width="150" height="30" as="geometry"/>
                </mxCell>
                <mxCell id="358" value="" style="rounded=1;whiteSpace=wrap;html=1;fontSize=50;arcSize=50;fillColor=#cdeb8b;strokeColor=#36393d;" parent="1" vertex="1">
                    <mxGeometry x="-281.38000000000005" y="620" width="211.75" height="70" as="geometry"/>
                </mxCell>
                <mxCell id="359" value="&lt;span&gt;Adjustable&lt;/span&gt;" style="text;html=1;align=center;verticalAlign=middle;resizable=0;points=[];autosize=1;strokeColor=none;fillColor=none;fontSize=23;" parent="1" vertex="1">
                    <mxGeometry x="-235.50000000000006" y="640" width="120" height="30" as="geometry"/>
                </mxCell>
                <mxCell id="360" value="" style="rounded=1;whiteSpace=wrap;html=1;fontSize=50;arcSize=50;fillColor=#cdeb8b;strokeColor=#36393d;" parent="1" vertex="1">
                    <mxGeometry x="-22.970000000000056" y="620" width="211.75" height="70" as="geometry"/>
                </mxCell>
                <mxCell id="361" value="&lt;span&gt;Adjustable&lt;/span&gt;" style="text;html=1;align=center;verticalAlign=middle;resizable=0;points=[];autosize=1;strokeColor=none;fillColor=none;fontSize=23;" parent="1" vertex="1">
                    <mxGeometry x="24.499999999999943" y="640" width="120" height="30" as="geometry"/>
                </mxCell>
            </root>
        </mxGraphModel>
    </diagram>
</mxfile>